<svg width="33" height="26" viewBox="0 0 33 26" fill="none" xmlns="http://www.w3.org/2000/svg">
<g clip-path="url(#clip0_256_432)">
<path d="M33 3.3598C33 9.78056 33 16.2104 33 22.6311C33 24.6235 31.6996 25.9909 29.8051 25.9909C22.132 25.9909 14.4504 25.9909 6.7774 25.9909C5.5976 25.9909 4.4178 25.9909 3.238 25.9909C1.58455 25.9909 0.45642 25.0582 0.0688935 23.3647C0.0602818 23.3375 0.0344468 23.3103 0.0172234 23.2922C0.189457 23.3194 0.189457 23.4734 0.223904 23.6001C0.6631 25.0129 1.71373 25.846 3.12604 25.9004C3.22077 25.9004 3.3155 25.9004 3.41884 25.9004C12.1597 25.9004 20.9006 25.9004 29.6414 25.9004C30.2184 25.9004 30.7782 25.8189 31.2949 25.5381C32.3025 24.9857 32.8192 24.0892 32.9139 22.9028C32.9225 22.8213 32.9139 22.7398 32.9139 22.6674C32.9139 16.2194 32.9139 9.77151 32.9139 3.32358C32.9139 1.96517 32.3283 0.969 31.1485 0.380355C30.7265 0.181122 30.2959 0.0905608 29.8481 0.0905608C20.9522 0.0905608 12.065 0.0905608 3.1691 0.0905608C1.73956 0.0905608 0.645877 0.950888 0.206681 2.3908C0.172234 2.51759 0.172234 2.67154 0 2.69871C0.0688935 2.47231 0.129175 2.2278 0.223904 2.01045C0.749217 0.769767 1.65344 0.108673 2.93659 0.00905608C3.03132 0 3.12604 0 3.22938 0C12.0736 0 20.9264 0 29.7706 0C31.3379 0 32.535 0.92372 32.9053 2.42703C32.9742 2.73494 33 3.04284 33 3.3598Z" fill="#FEFEFE"/>
<path d="M32.8967 2.42703C32.535 0.92372 31.3379 0 29.7706 0C20.9178 0 12.0736 0 3.22938 0C3.13466 0 3.03132 0 2.93659 0.00905608C1.65344 0.108673 0.749217 0.769767 0.223904 2.01045C0.129175 2.2278 0.0775052 2.47231 0 2.69871V23.3013C0.0172234 23.3285 0.0516701 23.3466 0.0516701 23.3737C0.439196 25.0582 1.56733 25.9909 3.22077 26C4.40057 26 5.58038 26 6.76018 26C14.4332 26 22.1148 26 29.7878 26C31.6824 26 32.9828 24.6325 32.9828 22.6402C32.9828 16.2194 32.9828 9.78962 32.9828 3.36886C33 3.04284 32.9742 2.73494 32.8967 2.42703ZM1.98069 2.88889C2.1357 2.33647 2.54045 2.03762 3.15188 2.03762C7.59551 2.03762 12.0478 2.03762 16.4914 2.03762C20.9264 2.03762 25.3614 2.03762 29.7965 2.03762C30.3993 2.03762 30.804 2.29119 30.9849 2.78022C31.1743 3.29641 31.0193 3.77638 30.5284 4.12052C28.7114 5.39742 26.8857 6.67433 25.0686 7.95124C22.4851 9.76245 19.893 11.5827 17.3095 13.3939C16.6722 13.8377 16.3278 13.8467 15.6905 13.3939C11.2985 10.3149 6.91519 7.23581 2.52323 4.1658C2.00652 3.7945 1.83429 3.39603 1.98069 2.88889ZM1.93763 22.5677V6.23964C2.07542 6.23058 2.14431 6.3302 2.23043 6.39359C6.37265 9.29154 10.5063 12.1985 14.6485 15.0965C15.9144 15.984 17.0856 15.984 18.3601 15.0965C22.4679 12.2257 26.5671 9.34587 30.6662 6.46604C30.7782 6.38453 30.8987 6.30303 31.0624 6.19436V22.5677C31.0624 23.5367 30.649 23.9624 29.7189 23.9624C20.9006 23.9624 12.0908 23.9624 3.27244 23.9624C2.34238 23.9624 1.93763 23.5367 1.93763 22.5677Z" fill="#38BCFF"/>
</g>
<defs>
<clipPath id="clip0_256_432">
<rect width="33" height="26" fill="white"/>
</clipPath>
</defs>
</svg>
