<svg width="15" height="14" viewBox="0 0 15 14" fill="none" xmlns="http://www.w3.org/2000/svg">
<path d="M3.81956 14.1346H0.916431V4.69787H3.81956V14.1346ZM2.36643 3.41061C1.43831 3.41061 0.685181 2.63446 0.685181 1.69742C0.685181 1.24723 0.862312 0.815489 1.17761 0.497162C1.4929 0.178834 1.92054 0 2.36643 0C2.81233 0 3.23996 0.178834 3.55525 0.497162C3.87055 0.815489 4.04768 1.24723 4.04768 1.69742C4.04768 2.63446 3.29456 3.41061 2.36643 3.41061ZM14.6821 14.1346H11.7852V9.54086C11.7852 8.44606 11.7633 7.04207 10.2758 7.04207C8.76643 7.04207 8.53518 8.23152 8.53518 9.46199V14.1346H5.63518V4.69787H8.41956V5.98513H8.46018C8.84768 5.24369 9.79456 4.46124 11.2071 4.46124C14.1446 4.46124 14.6852 6.41421 14.6852 8.95087V14.1346H14.6821Z" fill="white"/>
</svg>
