<svg width="35" height="40" viewBox="0 0 35 40" fill="none" xmlns="http://www.w3.org/2000/svg">
<path d="M34.2887 35.0771C33.5774 36.1047 32.5446 36.7703 31.4532 37.3281C29.2414 38.4537 26.8541 39.0409 24.4279 39.4422C21.6801 39.8924 18.9226 40.0685 16.1456 39.9707C12.6086 39.8532 9.13003 39.4226 5.76839 38.2677C4.22886 37.7392 2.75753 37.0737 1.5298 35.9775C0.886709 35.4294 0.409259 34.7737 0.165662 33.9711C-0.282556 32.4737 0.224126 31.2307 1.27646 30.1835C2.59189 28.8818 4.24835 28.1772 5.95352 27.5997C7.45408 27.0908 8.98387 26.7287 10.5429 26.484C10.8352 26.4351 10.806 26.3568 10.6793 26.1512C9.40286 24.1547 8.1459 22.1385 6.84996 20.1419C5.13504 17.519 4.35553 14.6514 4.76477 11.5488C5.44684 6.4008 8.22385 2.81871 13.0276 0.841715C13.8948 0.489378 14.7912 0.274061 15.7266 0.146828C15.8825 0.127254 16.0677 0.156616 16.1846 0.00980863C16.1066 0.274061 15.863 0.234913 15.6779 0.264274C14.2553 0.469804 12.9009 0.900437 11.6342 1.59532C8.36026 3.36679 6.22635 6.05825 5.21299 9.65013C4.85247 10.9322 4.70631 12.2633 4.78426 13.5943C4.87195 15.1505 5.22273 16.6479 5.84634 18.0964C6.46021 19.5058 7.38587 20.7194 8.17513 22.0113C8.98387 23.3325 9.83159 24.6244 10.6501 25.9359C10.9619 26.4351 10.9034 26.5427 10.3285 26.6406C8.37975 26.9734 6.46995 27.4627 4.64784 28.2163C3.59551 28.6567 2.58214 29.1852 1.70519 29.9388C1.218 30.3597 0.808758 30.8393 0.516442 31.4167C-0.146142 32.7478 0.0389921 33.9907 0.906197 35.1554C1.69545 36.2222 2.78676 36.9073 3.95603 37.4456C6.61611 38.669 9.43209 39.2562 12.3163 39.5987C14.4697 39.8532 16.6231 39.9804 18.7862 39.8924C22.4304 39.7456 26.0454 39.3149 29.5045 38.072C30.8686 37.5826 32.1548 36.9464 33.2851 36.0264C33.7431 35.6545 34.1231 35.2141 34.4154 34.6954C35.4287 32.8946 34.7369 31.1525 33.3436 29.9584C31.9989 28.8035 30.4009 28.138 28.725 27.6095C27.3706 27.1789 26.0064 26.8559 24.613 26.6112C24.1161 26.5231 24.0674 26.3959 24.3402 25.9555C25.451 24.1644 26.5813 22.393 27.7311 20.6215C28.4814 19.4666 29.1927 18.2824 29.6019 16.9513C30.0988 15.3365 30.3327 13.6922 30.1865 11.9893C29.9137 8.56376 28.4814 5.7157 25.9967 3.40594C24.5253 2.03574 22.7909 1.08639 20.8324 0.557888C20.2283 0.391507 19.6144 0.303423 19.0103 0.185977C18.8836 0.166403 18.7083 0.205551 18.6888 -0.00976562C18.9031 0.127254 19.1467 0.10768 19.3806 0.137041C22.7715 0.665546 25.529 2.3 27.6336 5.01103C29.5824 7.51654 30.4594 10.3842 30.3327 13.5552C30.245 15.8454 29.5532 17.9692 28.3157 19.8973C27.0003 21.9623 25.6849 24.0372 24.3597 26.1023C24.2135 26.3274 24.1648 26.4155 24.5059 26.4742C27.01 26.9048 29.4655 27.5019 31.7358 28.7155C32.8564 29.3125 33.8795 30.0367 34.5226 31.1818C35.2436 32.5324 35.1462 33.8341 34.2887 35.0771Z" fill="#38BCFF"/>
<path d="M17.4903 7.10547C14.2846 7.10547 11.6635 9.74799 11.6635 12.968C11.6635 16.1879 14.2943 18.8207 17.5 18.8207C20.7058 18.8207 23.3269 16.1781 23.3269 12.9582C23.3269 9.74799 20.696 7.10547 17.4903 7.10547ZM17.5098 16.4815C15.6 16.4913 13.9922 14.8764 14.002 12.9582C14.0117 11.0497 15.5902 9.46417 17.4903 9.45438C19.3903 9.44459 20.9689 11.0203 20.9981 12.9386C21.0176 14.8471 19.4196 16.4718 17.5098 16.4815Z" fill="#38BCFF"/>
<path d="M34.5031 31.2014C33.86 30.0563 32.8369 29.332 31.7163 28.735C29.446 27.5214 26.9905 26.9342 24.4864 26.4938C24.1453 26.435 24.1941 26.347 24.3402 26.1218C25.6654 24.0568 26.9808 21.9819 28.2962 19.9168C29.5337 17.979 30.2158 15.8649 30.3132 13.5747C30.4399 10.4037 29.5532 7.53609 27.6142 5.03058C25.4997 2.31955 22.7422 0.685099 19.3514 0.146807C19.1175 0.107658 18.8739 0.13702 18.6595 0H18.4257C18.3867 0.0391485 18.3477 0.0391485 18.299 0.0391485C18.2893 0.0391485 18.2795 0.0391485 18.2698 0.0391485H18.1236C18.0652 0.0391485 18.0067 0.0489356 17.9677 0H17.0323C16.9933 0.0391485 16.9544 0.0391485 16.9056 0.0391485C16.8959 0.0391485 16.8862 0.0391485 16.8764 0.0391485H16.7205C16.6718 0.0391485 16.6133 0.0489356 16.5646 0H16.1748C16.0579 0.146807 15.8728 0.117446 15.7169 0.13702C14.7912 0.264252 13.885 0.479569 13.0178 0.831906C8.22385 2.81869 5.44684 6.40078 4.76477 11.5488C4.35553 14.6513 5.13504 17.5287 6.84996 20.1517C8.1459 22.1385 9.40286 24.1546 10.6793 26.161C10.8157 26.3665 10.8352 26.4448 10.5429 26.4938C8.98387 26.7384 7.44434 27.1006 5.95352 27.6095C4.2386 28.1869 2.58214 28.8916 1.27646 30.1933C0.224126 31.2405 -0.282556 32.4835 0.165662 33.9809C0.409259 34.7835 0.896453 35.4392 1.52006 35.9873C2.75753 37.0834 4.22886 37.749 5.75865 38.2775C9.12028 39.4323 12.6086 39.863 16.1359 39.9804C18.9129 40.0685 21.6801 39.9021 24.4182 39.4519C26.8541 39.0506 29.2316 38.4732 31.4435 37.3379C32.5348 36.78 33.5579 36.1145 34.279 35.0869C35.1462 33.8341 35.2436 32.5324 34.5031 31.2014ZM32.262 33.883C31.4727 34.8128 30.4009 35.312 29.3096 35.7524C26.9223 36.7017 24.4279 37.1715 21.8848 37.4358C20.4232 37.5826 18.9616 37.6511 17.3539 37.6609C14.1579 37.6315 10.8547 37.3379 7.62947 36.4179C6.20687 36.0069 4.82323 35.5077 3.59551 34.6562C3.27396 34.4311 2.98164 34.1864 2.7283 33.8733C2.22162 33.2567 2.21188 32.6988 2.71856 32.0822C3.15703 31.5537 3.71243 31.172 4.29706 30.8392C5.9048 29.9388 7.6587 29.4397 9.44183 29.0678C10.2506 28.8916 11.0691 28.7742 11.8875 28.6469C12.1506 28.6078 12.2773 28.6665 12.4137 28.8818C13.7291 30.9763 15.064 33.0707 16.3892 35.1652C16.6036 35.5077 16.8472 35.7915 17.2662 35.86C17.8703 35.9579 18.2698 35.6839 18.5913 35.1847C19.8775 33.1392 21.1832 31.1133 22.4596 29.0678C22.6838 28.7057 22.8981 28.598 23.3171 28.6665C25.87 29.0678 28.3839 29.5767 30.6835 30.8295C31.2779 31.1524 31.8333 31.5341 32.2717 32.0626C32.7784 32.689 32.7882 33.2567 32.262 33.883ZM27.6726 10.4135C28.3937 13.3594 27.926 16.139 26.2987 18.7032C23.4438 23.1955 20.5888 27.678 17.7339 32.1703C17.6657 32.278 17.5975 32.3856 17.4903 32.5422C16.0482 30.2716 14.6353 28.0499 13.2225 25.8282C11.6732 23.401 10.0752 21.0032 8.59411 18.5368C6.46021 14.9645 6.41149 11.2846 8.43821 7.65353C9.95826 4.93271 12.326 3.21997 15.3759 2.59359C20.9299 1.42892 26.2987 4.85442 27.6726 10.4135Z" fill="#38BCFF"/>
<path d="M16.7107 0.0685099C16.6523 0.078297 16.5841 0.0978713 16.5646 0C16.6133 0 16.6718 0 16.7205 0C16.7497 0.0195743 16.7595 0.0293614 16.7497 0.0489356C16.7302 0.0587228 16.7205 0.0685099 16.7107 0.0685099Z" fill="#38BCFF"/>
<path d="M16.7108 0.0685099C16.7108 0.0489356 16.7108 0.0293614 16.7108 0C16.7595 0 16.8179 0 16.8667 0C16.8959 0.0195743 16.9056 0.0293614 16.8959 0.0489356C16.8861 0.0587228 16.8764 0.0685099 16.8667 0.0685099C16.8179 0.0685099 16.7692 0.0685099 16.7108 0.0685099Z" fill="#38BCFF"/>
<path d="M16.8666 0.0685099C16.8666 0.0489356 16.8666 0.0293614 16.8666 0C16.9154 0 16.9738 0 17.0225 0C17.0031 0.078297 16.9348 0.078297 16.8666 0.0685099Z" fill="#38BCFF"/>
<path d="M18.1236 0.0685099C18.0554 0.078297 17.9969 0.078297 17.9677 0C18.0164 0 18.0749 0 18.1236 0C18.1431 0.00978713 18.1528 0.0293614 18.1528 0.0391485C18.1334 0.0587228 18.1334 0.0685099 18.1236 0.0685099Z" fill="#38BCFF"/>
<path d="M18.1236 0.0685099C18.1236 0.0489356 18.1236 0.0293614 18.1236 0C18.1723 0 18.2308 0 18.2795 0C18.3087 0.00978713 18.3087 0.0293614 18.3087 0.0391485C18.299 0.0587228 18.2892 0.0587228 18.2892 0.0587228C18.221 0.0685099 18.1723 0.0685099 18.1236 0.0685099Z" fill="#38BCFF"/>
<path d="M18.2795 0.0685099C18.2795 0.0489356 18.2795 0.0293614 18.2795 0C18.3283 0 18.3867 0 18.4354 0C18.4062 0.0978713 18.338 0.078297 18.2795 0.0685099Z" fill="#38BCFF"/>
<path d="M17.4903 7.10547C14.2846 7.10547 11.6635 9.74799 11.6635 12.968C11.6635 16.1879 14.2943 18.8207 17.5 18.8207C20.7058 18.8207 23.3269 16.1781 23.3269 12.9582C23.3269 9.74799 20.696 7.10547 17.4903 7.10547ZM17.5098 16.4815C15.6 16.4913 13.9922 14.8764 14.002 12.9582C14.0117 11.0497 15.5902 9.46417 17.4903 9.45438C19.3903 9.44459 20.9689 11.0203 20.9981 12.9386C21.0176 14.8471 19.4196 16.4718 17.5098 16.4815Z" fill="#38BCFF"/>
<path d="M17.4903 7.10547C14.2846 7.10547 11.6635 9.74799 11.6635 12.968C11.6635 16.1879 14.2943 18.8207 17.5 18.8207C20.7058 18.8207 23.3269 16.1781 23.3269 12.9582C23.3269 9.74799 20.696 7.10547 17.4903 7.10547ZM17.5098 16.4815C15.6 16.4913 13.9922 14.8764 14.002 12.9582C14.0117 11.0497 15.5902 9.46417 17.4903 9.45438C19.3903 9.44459 20.9689 11.0203 20.9981 12.9386C21.0176 14.8471 19.4196 16.4718 17.5098 16.4815Z" fill="#38BCFF"/>
</svg>
