<svg width="37" height="37" viewBox="0 0 37 37" fill="none" xmlns="http://www.w3.org/2000/svg">
<g clip-path="url(#clip0_256_427)">
<path d="M19.1562 7.83852C19.1268 7.32966 19.4108 6.91866 19.8907 6.76208C19.9886 6.73273 20.1062 6.72294 20.1943 6.70337C20.8799 6.79144 21.536 6.93823 22.1726 7.17309C26.2859 8.67031 28.9497 11.518 30.1054 15.7552C30.1739 16.0194 30.2327 16.2934 30.2817 16.5674C30.3894 17.1448 30.076 17.6732 29.5178 17.8298C28.9791 17.9766 28.4111 17.6732 28.2446 17.1056C28.0487 16.4402 27.941 15.7454 27.6766 15.0996C26.2467 11.6843 23.7298 9.58039 20.0964 8.82688C19.5186 8.69967 19.1856 8.34738 19.1562 7.83852Z" fill="#38BCFF"/>
<path d="M33.8759 27.6057C35.0315 28.9365 35.0609 30.8252 33.9346 32.1658C32.9357 33.3597 31.8094 34.4361 30.6832 35.5028C29.3708 36.7554 27.7157 37.1174 25.9333 36.9609C22.819 36.6869 20.0474 35.4245 17.3639 33.9371C14.0341 32.0973 11.0667 29.7585 8.47141 26.9696C5.33748 23.5935 2.74219 19.8553 1.10667 15.5104C0.646374 14.2872 0.274219 13.0249 0.117523 11.7234C0.0979354 11.5961 0.146903 11.4298 0 11.3319C0.235045 11.3809 0.195871 11.5864 0.215458 11.7331C0.440709 13.5827 1.07729 15.3049 1.8216 16.9979C3.19269 20.1391 5.10243 22.9378 7.31578 25.5409C10.1461 28.868 13.4563 31.6178 17.2562 33.7707C18.8624 34.6808 20.5175 35.4832 22.2705 36.0801C23.7493 36.5792 25.2673 36.9315 26.8343 36.8924C28.5678 36.8532 30.0368 36.2074 31.1924 34.8765C31.8192 34.1621 32.5341 33.5261 33.2001 32.8508C33.5821 32.4594 33.9346 32.0582 34.2088 31.5787C34.9434 30.2772 34.7671 28.7017 33.7583 27.5861C32.2893 25.9714 30.693 24.484 29.1652 22.9378C28.5482 22.3213 27.8332 21.881 26.9224 21.8125C26.0508 21.744 25.2771 21.9788 24.5916 22.4975C24.004 22.9378 23.5241 23.5054 22.9952 24.0143C22.6035 24.3861 22.2215 24.7678 21.8494 25.169C21.6339 25.3941 21.4283 25.4234 21.1443 25.2864C19.8417 24.6406 18.6665 23.799 17.5598 22.8693C15.8753 21.47 14.3769 19.8847 13.0842 18.1232C12.5455 17.3991 12.0558 16.6358 11.6641 15.8138C11.478 15.4224 11.4976 15.4028 11.8012 15.1092C12.7414 14.1894 13.7305 13.3184 14.5238 12.2714C15.4052 11.0971 15.3857 9.47263 14.5042 8.29834C14.3084 8.04391 14.1027 7.78948 13.8677 7.5644C12.4868 6.18461 11.1059 4.80482 9.72499 3.42502C9.46056 3.16081 9.17655 2.91616 8.84357 2.73023C7.47247 1.93759 6.16014 2.07459 4.92615 3.00423C3.96638 3.73817 3.1829 4.64824 2.35045 5.50939C2.15458 5.71489 1.9685 5.93997 1.75304 6.14547C0.920593 6.95769 0.430916 7.95583 0.225251 9.11056C0.195871 9.26713 0.235045 9.48241 0 9.54113C0.16649 9.3552 0.117523 9.12034 0.156697 8.90505C0.391742 7.85798 0.842245 6.92833 1.59635 6.16504C2.59529 5.13753 3.54526 4.0611 4.64214 3.13145C6.26787 1.76144 8.02091 1.76144 9.58788 3.20974C11.2626 4.76567 12.8981 6.37054 14.4259 8.08305C15.5619 9.3552 15.5521 11.2145 14.4651 12.516C13.6424 13.4946 12.712 14.3753 11.7816 15.2462C11.6151 15.4028 11.5956 15.5104 11.7033 15.7257C12.6043 17.5557 13.8774 19.1018 15.2583 20.5697C16.6392 22.0473 18.1572 23.3489 19.8515 24.4644C20.3216 24.7776 20.8407 25.0026 21.3303 25.2864C21.5164 25.3941 21.585 25.2766 21.6927 25.1788C22.4174 24.4546 23.1421 23.7305 23.8669 23.0161C24.5622 22.3213 25.3555 21.7929 26.374 21.7244C27.2946 21.6559 28.1271 21.9006 28.8126 22.5171C30.2425 23.7892 31.5352 25.2081 32.9063 26.5488C33.2295 26.8913 33.5625 27.2436 33.8759 27.6057Z" fill="#38BCFF"/>
<path d="M36.2165 17.497C35.6681 17.634 35.1295 17.3502 34.963 16.8022C34.7279 15.9704 34.5908 15.1093 34.3264 14.2872C33.5821 11.9582 32.4069 9.85429 30.8007 8.01457C28.6265 5.53877 25.9823 3.75776 22.8484 2.72046C22.0551 2.45625 21.252 2.27032 20.4391 2.11375C19.9201 2.01589 19.5675 1.76146 19.4598 1.23303C19.3619 0.743739 19.5773 0.381665 20.1355 0.048949C20.1551 0.0391632 20.1649 0.00980592 20.1747 -0.00976562C20.1943 0.146807 20.0474 0.176164 19.9593 0.244664C19.6165 0.50888 19.4598 0.841596 19.5675 1.26238C19.6655 1.65382 19.9397 1.89846 20.3412 1.98653C21.0757 2.15289 21.8298 2.29968 22.5546 2.52475C24.053 2.98468 25.4632 3.62076 26.7854 4.45255C29.8507 6.39013 32.1522 9.00293 33.6702 12.3007C34.2285 13.524 34.63 14.7961 34.8944 16.1074C34.9434 16.3423 34.9728 16.5869 35.0707 16.812C35.247 17.2719 35.7465 17.5166 36.2165 17.3893C36.6768 17.2621 36.9706 16.8218 36.8825 16.3325C36.5104 14.1405 35.7856 12.0757 34.7083 10.1283C33.7975 8.48428 32.6713 6.99685 31.3492 5.66598C30.0172 4.32533 28.5286 3.19018 26.8637 2.2801C25.0617 1.29174 23.1324 0.596952 21.0953 0.195736C20.968 0.176164 20.7917 0.205521 20.7623 2.01464e-05C21.585 0.244664 22.437 0.391451 23.2597 0.645881C25.9235 1.47767 28.3132 2.81832 30.409 4.65805C32.6811 6.64456 34.4341 9.01272 35.6387 11.7821C36.2753 13.2402 36.716 14.7667 36.9804 16.3325C37.0784 16.8903 36.7552 17.3698 36.2165 17.497Z" fill="#38BCFF"/>
<path d="M33.8759 27.6057C33.5625 27.2436 33.2295 26.8913 32.8867 26.5488C31.5254 25.2081 30.2327 23.7892 28.793 22.5171C28.1075 21.9103 27.275 21.6657 26.3544 21.7244C25.3261 21.8027 24.5426 22.3213 23.8473 23.0161C23.1226 23.7403 22.3978 24.4644 21.6731 25.1788C21.5752 25.2766 21.4968 25.3941 21.3107 25.2864C20.8211 25.0026 20.302 24.7678 19.8319 24.4644C18.1376 23.3586 16.6196 22.0473 15.2388 20.5697C13.8579 19.1018 12.5847 17.5557 11.6837 15.7257C11.576 15.5104 11.5956 15.4028 11.762 15.2462C12.6924 14.3655 13.6228 13.4946 14.4455 12.516C15.5326 11.2145 15.5424 9.3552 14.4063 8.08305C12.8981 6.38032 11.2626 4.76567 9.58788 3.20974C8.02091 1.76144 6.26787 1.76144 4.64214 3.13145C3.54526 4.0611 2.59529 5.13753 1.59635 6.16504C0.852038 6.92833 0.391742 7.85798 0.156697 8.90505C0.107729 9.12034 0.156697 9.3552 0 9.54113V9.9717C0.0391742 10.0108 0.0391742 10.05 0.0391742 10.0891C0.0391742 10.0989 0.0391742 10.1087 0.0391742 10.1087C0.0391742 10.1185 0.0391742 10.1381 0.0391742 10.1478C0.0391742 10.2066 0.0391742 10.2653 0.0391742 10.324V10.3533C0.0391742 10.4121 0.0391742 10.4806 0.0391742 10.5393V10.5491C0.0391742 10.5588 0.0391742 10.5588 0.0391742 10.5686C0.0391742 10.598 0.0391742 10.6371 0.0391742 10.6665V10.6958C0.0391742 10.7546 0.0391742 10.8133 0.0391742 10.8818C0.0391742 10.8916 0.0391742 10.9014 0.0391742 10.9111C0.0391742 10.9209 0.0391742 10.9307 0.0391742 10.9307C0.0391742 10.9699 0.0391742 11.0188 0 11.0481V11.3417C0.146903 11.4396 0.0979354 11.5961 0.117522 11.7331C0.274219 13.0444 0.646374 14.297 1.10667 15.5202C2.74219 19.8651 5.33748 23.6033 8.47141 26.9794C11.0667 29.7683 14.0244 32.0973 17.3639 33.9468C20.0474 35.4343 22.8189 36.6966 25.9333 36.9706C27.7157 37.1272 29.3708 36.7651 30.6832 35.5126C31.7996 34.4459 32.9357 33.3597 33.9346 32.1756C35.0707 30.8252 35.0315 28.9365 33.8759 27.6057ZM32.2697 30.9035C32.1718 31.0307 32.0738 31.1481 31.9563 31.2558C31.163 32.068 30.3404 32.841 29.5765 33.6826C28.6363 34.7003 27.4415 35.0037 26.0998 34.8863C23.955 34.7003 21.9865 33.937 20.0768 33.0074C15.699 30.8545 11.9383 27.8894 8.7946 24.1709C6.43436 21.3819 4.44627 18.3581 3.14373 14.9233C2.60508 13.4946 2.15458 12.0561 2.15458 10.3338C2.08602 9.2182 2.52673 8.14176 3.46691 7.24147C4.26019 6.48797 5.01429 5.69532 5.79778 4.92225C6.70858 4.02195 7.47247 4.02195 8.38327 4.93203C9.73478 6.29225 11.0863 7.64269 12.4378 9.00291C12.5357 9.09098 12.6239 9.18884 12.712 9.29648C13.3192 10.0011 13.329 10.6665 12.7022 11.3515C11.8894 12.242 11.0177 13.0738 10.1461 13.8958C9.26469 14.7276 9.17655 15.256 9.67602 16.3618C10.6064 18.407 11.9775 20.1293 13.4759 21.7733C15.1996 23.6522 17.1191 25.3158 19.3227 26.6173C19.8025 26.9011 20.2922 27.1457 20.7819 27.4002C21.5066 27.7622 22.1628 27.6546 22.7602 27.0674C23.5828 26.2552 24.3957 25.4332 25.2184 24.621C25.3261 24.5134 25.4436 24.3959 25.5611 24.2981C26.2663 23.6718 27.0008 23.6718 27.6765 24.3274C28.5384 25.169 29.3904 26.0204 30.2327 26.8815C30.9084 27.5567 31.594 28.2222 32.2305 28.917C32.8084 29.5335 32.7986 30.2282 32.2697 30.9035Z" fill="#38BCFF"/>
<path d="M36.2165 17.497C35.6681 17.634 35.1295 17.3502 34.963 16.8022C34.7279 15.9704 34.5908 15.1093 34.3264 14.2872C33.5821 11.9582 32.4069 9.85429 30.8007 8.01457C28.6265 5.53877 25.9823 3.75776 22.8484 2.72046C22.0551 2.45625 21.252 2.27032 20.4391 2.11375C19.9201 2.01589 19.5675 1.76146 19.4598 1.23303C19.3619 0.743739 19.5773 0.381665 20.1355 0.048949C20.1551 0.0391632 20.1649 0.00980592 20.1747 -0.00976562H20.7525C21.5752 0.234879 22.4272 0.381665 23.2499 0.636095C25.9137 1.46789 28.3034 2.80854 30.3992 4.64826C32.6713 6.63477 34.4243 9.00293 35.6289 11.7723C36.2655 13.2304 36.7062 14.757 36.9706 16.3227C37.0784 16.8903 36.7552 17.3698 36.2165 17.497Z" fill="#38BCFF"/>
<path d="M0.0587613 10.1185C0.0587613 10.187 0.0587613 10.2652 0.0587613 10.3337C0.0391742 10.3729 0.0195871 10.3729 0 10.3337C0 10.2652 0 10.187 0 10.1185C0.0195871 10.0891 0.0391742 10.0891 0.0587613 10.1185Z" fill="#38BCFF"/>
<path d="M0 10.3337C0.0195871 10.3337 0.0391742 10.3337 0.0587613 10.3337C0.0587613 10.412 0.0587613 10.4805 0.0587613 10.5588C0.0391742 10.5882 0.0195871 10.5882 0 10.5588C0 10.4805 0 10.412 0 10.3337Z" fill="#38BCFF"/>
<path d="M0.0587613 10.6959C0.0391742 10.6959 0.0195871 10.6959 0 10.6959C0 10.6469 0 10.598 0 10.5491C0.0195871 10.5491 0.0391742 10.5491 0.0587613 10.5491C0.0587613 10.6078 0.0587613 10.6469 0.0587613 10.6959Z" fill="#38BCFF"/>
<path d="M0 10.9111C0.0195871 10.9111 0.0391742 10.9111 0.0587613 10.9111C0.0685548 10.9698 0.0881419 11.0383 0 11.0579C0 11.009 0 10.9601 0 10.9111Z" fill="#38BCFF"/>
<path d="M29.5275 17.82C28.9889 17.9668 28.4209 17.6634 28.2544 17.0959C28.0585 16.4304 27.9508 15.7356 27.6863 15.0898C26.2565 11.6745 23.7395 9.5706 20.1061 8.8171C19.5185 8.69967 19.1855 8.34738 19.166 7.83852C19.1366 7.32966 19.4206 6.91866 19.9005 6.76208C19.9984 6.73273 20.1159 6.72294 20.2041 6.70337C20.8896 6.79144 21.5458 6.93823 22.1824 7.17309C26.2957 8.67031 28.9595 11.518 30.1151 15.7552C30.1837 16.0194 30.2425 16.2934 30.2914 16.5674C30.3991 17.1448 30.076 17.6732 29.5275 17.82Z" fill="#38BCFF"/>
</g>
<defs>
<clipPath id="clip0_256_427">
<rect width="37" height="37" fill="white"/>
</clipPath>
</defs>
</svg>
