<svg width="162" height="139" viewBox="0 0 162 139" fill="none" xmlns="http://www.w3.org/2000/svg">
<g clip-path="url(#clip0_353_1200)">
<path d="M159.932 48.4491C150.981 39.4101 142.024 30.3845 133.061 21.3722C132.285 20.5888 132.166 20.167 133.061 19.3636C135.249 17.2143 137.377 14.9846 139.545 12.7952C140.578 11.8937 141.297 10.6816 141.598 9.3368C141.899 7.99196 141.765 6.58518 141.215 5.32294C140.741 4.06332 139.887 2.98611 138.773 2.24358C137.66 1.50105 136.343 1.13077 135.01 1.18508L116.652 0.542305C110.685 0.361524 104.718 0.14057 98.7514 -3.65712e-05C97.7801 -0.0943373 96.8002 0.0326027 95.884 0.371434C94.9677 0.710266 94.1384 1.25236 93.4571 1.95779C92.7757 2.66321 92.2598 3.51401 91.9472 4.44751C91.6346 5.38101 91.5333 6.37344 91.6508 7.3517C91.8298 12.3935 91.9691 17.3951 92.1282 22.4971C92.347 29.3868 92.5856 36.2966 92.7845 43.1864C92.6757 44.6305 93.0269 46.0719 93.7869 47.3001C94.547 48.5282 95.676 49.4788 97.009 50.0128C98.3421 50.5468 99.8092 50.6363 101.196 50.2682C102.583 49.9002 103.817 49.0938 104.718 47.967C106.707 45.9583 108.696 43.9497 110.685 41.8205C111.52 40.8965 111.958 41.017 112.674 41.8205C121.836 51.0202 130.953 60.1797 140.022 69.2991C142.21 71.5086 142.926 71.5086 145.054 69.2991L159.991 54.2341C162.696 51.5425 162.676 51.2412 159.932 48.4491ZM155.635 52.6071C151.657 56.6244 147.56 60.6417 143.702 64.6591C142.827 65.563 142.389 65.4425 141.573 64.6591C132.53 55.4594 123.448 46.273 114.325 37.1001C112.336 35.0914 111.56 35.0914 109.432 37.1001C106.807 39.7516 104.161 42.403 101.476 45.1348C101.157 45.5749 100.707 45.9001 100.192 46.0628C99.676 46.2255 99.1225 46.217 98.6122 46.0387C98.1154 45.8258 97.7 45.4567 97.4276 44.9862C97.1553 44.5157 97.0406 43.969 97.1006 43.4274C96.7028 31.2817 96.3182 19.1292 95.947 6.97005C95.947 5.10199 96.7823 4.23826 98.6917 4.29852C104.659 4.45921 110.625 4.66008 114.743 4.80069C122.698 5.0819 128.665 5.30285 134.632 5.48363C135.845 5.48363 136.899 5.76485 137.357 7.03031C137.513 7.54991 137.505 8.10581 137.334 8.62065C137.163 9.13548 136.837 9.58363 136.402 9.90271C133.777 12.4939 131.271 15.0851 128.665 17.6763C126.06 20.2675 126.278 20.5888 128.665 22.939C137.615 32.0182 146.586 41.1108 155.576 50.2167C156.511 51.0805 156.69 51.5826 155.635 52.6071Z" fill="#0086CA"/>
<path d="M155.635 52.6071C151.657 56.6245 147.56 60.6418 143.702 64.6592C142.827 65.5631 142.389 65.4425 141.573 64.6592C132.53 55.4594 123.448 46.2731 114.325 37.1002C112.336 35.0915 111.56 35.0915 109.432 37.1002C106.807 39.7516 104.161 42.4031 101.476 45.1349C101.157 45.575 100.707 45.9002 100.191 46.0629C99.676 46.2256 99.1225 46.2171 98.6122 46.0388C98.1154 45.8259 97.6999 45.4568 97.4276 44.9863C97.1552 44.5158 97.0405 43.9691 97.1005 43.4275C96.7028 31.2817 96.3182 19.1293 95.947 6.97013C95.947 5.10207 96.7823 4.23834 98.6917 4.2986C104.659 4.45929 110.625 4.66016 114.743 4.80077C122.698 5.08198 128.665 5.30293 134.632 5.48371C135.845 5.48371 136.899 5.76493 137.357 7.03039C137.513 7.54999 137.505 8.10589 137.334 8.62073C137.163 9.13556 136.837 9.58371 136.402 9.90279C133.777 12.494 131.271 15.0852 128.665 17.6763C126.06 20.2675 126.278 20.5889 128.665 22.9391C137.615 32.0183 146.586 41.1108 155.576 50.2168C156.51 51.0805 156.69 51.5827 155.635 52.6071Z" fill="#E0F5FF"/>
<path d="M161.503 116.181C161.277 109.191 161.052 102.188 160.827 95.1708C160.873 93.7854 160.495 92.4194 159.744 91.2594C158.992 90.0994 157.905 89.202 156.629 88.6898C155.354 88.1777 153.953 88.0758 152.618 88.3981C151.283 88.7204 150.079 89.4512 149.171 90.4906C147.182 92.6398 144.935 94.6887 142.906 96.8581C142.071 97.762 141.633 97.6816 140.917 96.8581C131.662 87.5646 122.48 78.2979 113.37 69.058C111.58 67.2502 110.705 67.2703 108.895 69.058L93.3216 84.7859C91.1934 86.9151 91.1934 87.578 93.3216 89.7273C102.365 98.8734 111.421 108.013 120.491 117.146C121.346 117.989 121.565 118.471 120.491 119.395C118.283 121.404 116.194 123.674 114.066 125.823C113.064 126.732 112.361 127.928 112.051 129.252C111.741 130.576 111.84 131.963 112.333 133.229C112.827 134.495 113.692 135.578 114.812 136.333C115.932 137.088 117.254 137.479 118.601 137.453C124.727 137.634 130.853 137.875 136.959 138.096C143.065 138.317 148.893 138.498 154.86 138.638C155.831 138.733 156.811 138.606 157.727 138.267C158.643 137.928 159.473 137.386 160.154 136.681C160.835 135.975 161.351 135.124 161.664 134.191C161.976 133.257 162.078 132.265 161.96 131.287C161.801 126.285 161.662 121.243 161.503 116.181ZM154.84 134.259C148.873 134.099 142.906 133.878 136.939 133.697L119.198 133.054C117.965 133.054 116.811 132.894 116.334 131.528C115.856 130.162 116.592 129.318 117.487 128.434C120.212 125.723 122.897 122.991 125.602 120.239C127.114 118.712 127.114 117.748 125.602 116.222C116.373 107.022 107.204 97.7017 97.9558 88.3815C96.9812 87.3972 97.0608 86.9352 97.9558 86.0112C101.934 81.9939 105.912 77.9765 109.89 73.9592C110.725 73.0754 111.182 73.1156 112.018 73.9592C121.101 83.1991 130.217 92.4189 139.366 101.619C141.355 103.627 142.071 103.627 144.04 101.619C146.599 99.0475 149.158 96.463 151.717 93.8651C152.612 92.9411 153.507 92.0774 154.899 92.6198C156.292 93.1621 156.411 94.4075 156.451 95.6729L157.465 128.274L157.585 131.347C157.783 133.536 156.988 134.42 154.84 134.36V134.259Z" fill="#0086CA"/>
<path d="M157.704 131.347C157.704 133.536 156.988 134.42 154.84 134.36C148.873 134.199 142.906 133.978 136.939 133.797L119.198 133.155C117.965 133.155 116.811 132.994 116.334 131.628C115.856 130.262 116.592 129.419 117.487 128.535C120.212 125.823 122.897 123.091 125.602 120.339C127.114 118.813 127.114 117.849 125.602 116.322C116.373 107.022 107.204 97.7017 97.9558 88.3814C96.9812 87.3972 97.0608 86.9352 97.9558 86.0112C101.934 81.9938 105.912 77.9765 109.89 73.9592C110.725 73.0753 111.182 73.1155 112.018 73.9592C121.101 83.199 130.217 92.4188 139.366 101.619C141.355 103.627 142.071 103.627 144.04 101.619C146.599 99.0475 149.158 96.463 151.717 93.8651C152.612 92.9411 153.507 92.0774 154.899 92.6197C156.292 93.1621 156.411 94.4074 156.451 95.6729L157.465 128.274L157.704 131.347Z" fill="#E0F5FF"/>
<path d="M105.056 121.263C94.094 130.061 80.4929 134.829 66.4906 134.782C49.964 134.782 34.1142 128.151 22.4281 116.349C10.742 104.547 4.1768 88.5406 4.1768 71.85C4.1768 55.1595 10.742 39.1526 22.4281 27.3506C34.1142 15.5487 49.964 8.91838 66.4906 8.91838C71.2228 8.91888 75.9398 9.45793 80.5525 10.5253C80.8137 10.5873 81.0844 10.5967 81.3492 10.5531C81.614 10.5094 81.8677 10.4135 82.0958 10.2708C82.3239 10.1281 82.5219 9.94142 82.6786 9.72144C82.8352 9.50145 82.9475 9.25246 83.0088 8.98868C83.0702 8.7249 83.0796 8.45149 83.0363 8.18407C82.9931 7.91664 82.8981 7.66044 82.7568 7.43008C82.6155 7.19973 82.4307 6.99973 82.2129 6.84152C81.995 6.6833 81.7485 6.56996 81.4873 6.50797C72.3608 4.37595 62.8912 4.21554 53.699 6.03726C44.5068 7.85899 35.7995 11.6217 28.1477 17.0789C20.4958 22.5361 14.0721 29.5646 9.2975 37.7039C4.52285 45.8431 1.50503 54.9094 0.441785 64.3086C-0.621464 73.7078 0.293854 83.2279 3.12776 92.245C5.96167 101.262 10.6502 109.573 16.8862 116.632C23.1221 123.692 30.7647 129.341 39.3132 133.209C47.8617 137.078 57.1231 139.079 66.4906 139.08C81.4465 139.102 95.9624 133.972 107.642 124.537C108.077 124.191 108.358 123.685 108.424 123.129C108.489 122.573 108.333 122.014 107.99 121.575C107.647 121.135 107.145 120.851 106.595 120.785C106.045 120.719 105.492 120.877 105.056 121.223V121.263Z" fill="#0086CA"/>
<path d="M55.6906 75.1846C55.6867 77.133 56.2554 79.0387 57.3248 80.6604C58.3942 82.282 59.9161 83.5467 61.6977 84.2941C63.4793 85.0416 65.4405 85.2382 67.3329 84.859C69.2253 84.4799 70.9636 83.5421 72.3278 82.1644C73.692 80.7867 74.6206 79.0311 74.996 77.1199C75.3714 75.2088 75.1767 73.2282 74.4366 71.4289C73.6965 69.6296 72.4443 68.0926 70.8386 67.0126C69.2328 65.9326 67.3458 65.3582 65.4166 65.3622L57.1227 27.7197C57.0639 27.4559 56.9542 27.2064 56.8 26.9854C56.6458 26.7645 56.4499 26.5763 56.2237 26.4318C55.9974 26.2872 55.7452 26.1891 55.4814 26.143C55.2176 26.0968 54.9474 26.1037 54.6862 26.163C54.425 26.2224 54.1779 26.3331 53.9591 26.4889C53.7403 26.6446 53.554 26.8424 53.4109 27.0709C53.2677 27.2994 53.1706 27.5541 53.1249 27.8205C53.0792 28.087 53.086 28.3598 53.1448 28.6236L61.2796 66.2862C59.6057 67.078 58.1905 68.3361 57.2004 69.9124C56.2103 71.4888 55.6865 73.3179 55.6906 75.1846Z" fill="#0086CA"/>
</g>
<defs>
<clipPath id="clip0_353_1200">
<rect width="162" height="139" fill="white"/>
</clipPath>
</defs>
</svg>
