<svg width="157" height="140" viewBox="0 0 157 140" fill="none" xmlns="http://www.w3.org/2000/svg">
<g clip-path="url(#clip0_353_1308)">
<path d="M147.096 66.8295C146.412 66.8193 145.737 66.6728 145.11 66.3983C144.482 66.1238 143.915 65.7269 143.442 65.2304L101.414 20.8245C100.451 19.8073 99.9266 18.4489 99.954 17.0447C99.9814 15.6405 100.559 14.3039 101.56 13.3255L113.693 1.4704C114.679 0.526488 115.987 0 117.348 0C118.709 0 120.017 0.526488 121.003 1.4704L142.839 23.1403L156.58 55.489C157.018 56.483 157.132 57.5911 156.906 58.6544C156.679 59.7176 156.124 60.6814 155.319 61.4074L150.55 65.5612C149.594 66.3983 148.364 66.85 147.096 66.8295ZM104.356 16.3214C104.141 16.5385 104.02 16.8326 104.02 17.1393C104.02 17.446 104.141 17.7401 104.356 17.9572L146.384 62.3631C146.571 62.5429 146.819 62.6432 147.078 62.6432C147.337 62.6432 147.585 62.5429 147.772 62.3631L152.541 58.2093C152.702 58.0657 152.815 57.8755 152.864 57.6649C152.913 57.4542 152.896 57.2335 152.816 57.033L139.367 25.5297L118.189 4.46633C117.97 4.25409 117.679 4.13544 117.375 4.13544C117.072 4.13544 116.78 4.25409 116.562 4.46633L104.356 16.3214Z" fill="#0086CA"/>
<path d="M126.923 82.7098L104.155 60.0289L101.231 57.1065L85.1878 41.0792L83.2144 39.0942C82.8996 38.7719 82.5431 38.4937 82.1546 38.2671C81.2822 37.7232 80.2755 37.4367 79.2492 37.44C78.5059 37.4462 77.7712 37.6004 77.0874 37.8938C76.4037 38.1872 75.7846 38.6139 75.2657 39.1493L35.3396 80.3204C34.5282 81.1461 33.9908 82.2042 33.801 83.3494C33.6113 84.4946 33.7785 85.6708 34.2798 86.7166C34.5398 87.2645 34.8853 87.7671 35.3031 88.2054L36.9293 89.9147L50.634 104.196L53.4845 107.173C53.9988 107.721 54.6192 108.157 55.3075 108.454C55.9958 108.751 56.7373 108.903 57.4863 108.901C58.9793 108.901 60.4116 108.306 61.4697 107.247L86.8689 81.8275C87.103 81.5885 87.4089 81.4337 87.7392 81.3872C88.0695 81.3407 88.4059 81.405 88.6962 81.5702L115.301 96.4396C116.343 97.0226 117.542 97.2567 118.725 97.108C119.908 96.9593 121.013 96.4355 121.88 95.6125L126.832 90.9256C127.392 90.4029 127.841 89.7709 128.151 89.068C128.46 88.3651 128.624 87.6062 128.633 86.8374C128.642 86.0687 128.494 85.3062 128.2 84.5966C127.906 83.8869 127.472 83.2449 126.923 82.7098ZM123.999 87.8378L119.047 92.5246C118.806 92.7525 118.498 92.8968 118.17 92.9365C117.841 92.9761 117.508 92.9091 117.22 92.7452L90.6697 77.9494C89.603 77.3495 88.3707 77.1165 87.1602 77.2857C85.9497 77.4549 84.8273 78.0171 83.9636 78.8867L58.6374 104.361C58.3552 104.642 57.9747 104.801 57.5776 104.802C57.3766 104.802 57.1778 104.76 56.9927 104.682C56.8076 104.603 56.64 104.488 56.4995 104.343L38.3729 85.3197C38.2307 85.1786 38.1188 85.0097 38.044 84.8235C37.9425 84.553 37.9196 84.259 37.9778 83.9759C38.0361 83.6928 38.1731 83.4322 38.3729 83.2244L78.2807 42.0533C78.4165 41.9075 78.5806 41.7915 78.763 41.7124C78.9454 41.6334 79.142 41.593 79.3405 41.5938C79.5376 41.5917 79.7331 41.6297 79.9153 41.7055C80.0974 41.7813 80.2624 41.8934 80.4004 42.035L101.359 62.9881L124.018 85.7241C124.163 85.8681 124.278 86.0399 124.356 86.2292C124.435 86.4186 124.475 86.6217 124.474 86.8269C124.464 87.2371 124.293 87.6266 123.999 87.9113V87.8378Z" fill="#0086CA"/>
<path d="M124.474 86.8269C124.464 87.2371 124.293 87.6266 123.999 87.9113L119.047 92.5982C118.806 92.826 118.498 92.9703 118.17 93.01C117.841 93.0497 117.508 92.9827 117.22 92.8187L90.6697 77.9494C89.603 77.3495 88.3707 77.1165 87.1602 77.2857C85.9497 77.4549 84.8273 78.0171 83.9636 78.8867L58.6375 104.361C58.3552 104.642 57.9747 104.801 57.5777 104.802C57.3766 104.802 57.1778 104.76 56.9927 104.682C56.8077 104.603 56.64 104.488 56.4996 104.343L37.9527 84.8235C37.8512 84.553 37.8283 84.259 37.8865 83.9759C37.9447 83.6928 38.0817 83.4322 38.2816 83.2244L78.1894 42.0533C78.3251 41.9075 78.4893 41.7915 78.6717 41.7124C78.854 41.6334 79.0506 41.593 79.2492 41.5938C79.4463 41.5917 79.6418 41.6297 79.8239 41.7055C80.0061 41.7813 80.1711 41.8934 80.309 42.035L101.268 62.9881L124.018 85.7241C124.163 85.8681 124.278 86.0399 124.356 86.2292C124.435 86.4186 124.475 86.6217 124.474 86.8269Z" fill="#E0F5FF"/>
<path d="M104.301 17.9387L103.26 16.8359L100.5 19.6481L82.2277 38.2669L79.4502 41.0975L80.3821 42.0348L101.341 62.988L104.155 60.0288L121.587 42.2738L124.474 39.3146L104.301 17.9387ZM101.25 57.1064L85.2061 41.0791L103.205 22.6991L118.773 39.2043L101.25 57.1064Z" fill="#0086CA"/>
<path d="M37.9526 84.8233L37.1303 83.9595L34.2798 86.7165L28.5421 92.2304L1.64455 118.183C0.624796 119.173 0.0353087 120.528 0.00450536 121.953C-0.026298 123.379 0.504079 124.759 1.4801 125.792L13.4671 138.346C13.9517 138.855 14.5313 139.264 15.1729 139.548C15.8145 139.832 16.5055 139.986 17.2063 140.001C17.9072 140.017 18.6041 139.893 19.2574 139.637C19.9107 139.382 20.5075 138.999 21.0137 138.511L53.4845 107.265L56.4447 104.398L37.9526 84.8233ZM18.1632 135.515C18.051 135.63 17.9173 135.721 17.7698 135.783C17.6224 135.845 17.4642 135.877 17.3044 135.877C17.1445 135.877 16.9863 135.845 16.8389 135.783C16.6914 135.721 16.5577 135.63 16.4455 135.515L4.45856 122.925C4.23621 122.689 4.11225 122.377 4.11225 122.052C4.11225 121.727 4.23621 121.415 4.45856 121.179L14.7279 111.29L17.7246 108.442L22.3659 103.975L25.3261 101.09L29.9126 96.6784L32.8911 93.7376L36.9293 89.8411L37.0207 89.7492L50.6705 104.086L18.1632 135.515Z" fill="#0086CA"/>
<path d="M37.8064 104.03C37.5306 104.032 37.2573 103.977 37.0029 103.87C36.7486 103.763 36.5184 103.605 36.3263 103.405L28.469 95.1896C28.2807 94.9929 28.1327 94.7608 28.0335 94.5066C27.9343 94.2523 27.8858 93.9809 27.8909 93.7078C27.896 93.4347 27.9545 93.1653 28.0631 92.915C28.1717 92.6647 28.3283 92.4383 28.5238 92.2488C28.7194 92.0594 28.9502 91.9105 29.2029 91.8107C29.4557 91.711 29.7255 91.6622 29.997 91.6674C30.2685 91.6725 30.5363 91.7313 30.7852 91.8406C31.0341 91.9498 31.2591 92.1073 31.4475 92.304L39.3048 100.538C39.4965 100.73 39.6487 100.957 39.7525 101.208C39.8563 101.459 39.9098 101.728 39.9098 101.999C39.9098 102.271 39.8563 102.54 39.7525 102.791C39.6487 103.042 39.4965 103.269 39.3048 103.461C39.1072 103.654 38.8722 103.804 38.6145 103.902C38.3567 104 38.0817 104.044 37.8064 104.03Z" fill="#0086CA"/>
<path d="M30.5704 111.621C30.2916 111.624 30.0152 111.571 29.7577 111.463C29.5001 111.356 29.2669 111.197 29.072 110.996L21.233 102.781C21.0253 102.589 20.8587 102.358 20.7434 102.099C20.628 101.841 20.5665 101.561 20.5625 101.278C20.5584 100.995 20.6121 100.714 20.72 100.452C20.8279 100.191 20.9879 99.9542 21.1901 99.7571C21.3923 99.56 21.6324 99.4066 21.8957 99.3063C22.159 99.206 22.44 99.1609 22.7212 99.1738C23.0025 99.1867 23.2782 99.2573 23.5313 99.3814C23.7845 99.5054 24.0097 99.6802 24.1932 99.895L32.0505 108.111C32.2428 108.304 32.3953 108.533 32.4994 108.785C32.6035 109.038 32.6571 109.308 32.6571 109.581C32.6571 109.854 32.6035 110.125 32.4994 110.377C32.3953 110.63 32.2428 110.859 32.0505 111.052C31.8538 111.241 31.6217 111.389 31.3675 111.486C31.1134 111.584 30.8424 111.63 30.5704 111.621Z" fill="#0086CA"/>
<path d="M22.7131 118.698C22.4369 118.701 22.163 118.648 21.9083 118.54C21.6537 118.433 21.4238 118.274 21.233 118.073L13.3757 109.838C13.184 109.647 13.0318 109.419 12.928 109.169C12.8242 108.918 12.7707 108.649 12.7707 108.377C12.7707 108.106 12.8242 107.837 12.928 107.586C13.0318 107.335 13.184 107.107 13.3757 106.916C13.7654 106.53 14.2905 106.313 14.8375 106.313C15.3845 106.313 15.9096 106.53 16.2993 106.916L24.1384 115.132C24.3306 115.325 24.4832 115.554 24.5873 115.806C24.6913 116.059 24.7449 116.329 24.7449 116.602C24.7449 116.875 24.6913 117.146 24.5873 117.398C24.4832 117.651 24.3306 117.88 24.1384 118.073C23.7635 118.461 23.2514 118.686 22.7131 118.698Z" fill="#0086CA"/>
</g>
<defs>
<clipPath id="clip0_353_1308">
<rect width="157" height="140" fill="white"/>
</clipPath>
</defs>
</svg>
