<svg width="130" height="130" viewBox="0 0 130 130" fill="none" xmlns="http://www.w3.org/2000/svg">
<g clip-path="url(#clip0_353_1317)">
<path d="M1.01179e-05 64.891C1.01179e-05 61.7377 1.01179e-05 58.5646 1.01179e-05 55.4112C-0.0814831 54.6971 0.00135739 53.9738 0.242265 53.2962C0.483172 52.6186 0.875836 52.0043 1.39055 51.4999C1.90527 50.9955 2.52856 50.6141 3.21326 50.3847C3.89797 50.1553 4.62616 50.0837 5.34275 50.1755C8.19354 50.1755 11.0643 50.1755 13.9151 50.1755C14.1275 50.2122 14.3453 50.2039 14.5543 50.1512C14.7633 50.0985 14.9588 50.0027 15.128 49.8698C15.2973 49.737 15.4365 49.5702 15.5367 49.3802C15.6368 49.1903 15.6956 48.9815 15.7093 48.7675C16.3832 46.1531 17.3251 43.6145 18.5202 41.1916C18.7214 40.8765 18.7963 40.4977 18.7298 40.1303C18.6633 39.7629 18.4604 39.4338 18.1613 39.2083C16.1678 37.2251 14.1742 35.2419 12.1807 33.2587C11.6308 32.8143 11.1874 32.2534 10.8829 31.617C10.5784 30.9806 10.4204 30.2846 10.4204 29.5798C10.4204 28.875 10.5784 28.179 10.8829 27.5426C11.1874 26.9062 11.6308 26.3454 12.1807 25.9009C16.7658 21.3263 21.3444 16.7649 25.9163 12.2167C26.3729 11.6952 26.9365 11.2771 27.5693 10.9906C28.2021 10.704 28.8892 10.5558 29.5844 10.5558C30.2797 10.5558 30.9668 10.704 31.5996 10.9906C32.2323 11.2771 32.796 11.6952 33.2526 12.2167C35.0069 13.962 36.7612 15.7072 38.4757 17.4921C38.575 17.6555 38.7085 17.7956 38.8671 17.9031C39.0257 18.0105 39.2057 18.0826 39.3949 18.1146C39.5841 18.1466 39.778 18.1377 39.9634 18.0885C40.1488 18.0392 40.3213 17.9508 40.4693 17.8292C43.2291 16.2611 46.1497 14.9912 49.1811 14.0413C49.3488 14.0103 49.5087 13.9467 49.6516 13.8541C49.7946 13.7616 49.9177 13.6418 50.014 13.5018C50.1103 13.3618 50.1779 13.2042 50.2129 13.0381C50.2478 12.8721 50.2495 12.7008 50.2178 12.534C50.2178 10.0749 50.2178 7.61566 50.2178 5.13664C50.1634 4.46359 50.2535 3.78673 50.4822 3.151C50.711 2.51528 51.0731 1.93524 51.5444 1.44942C52.0158 0.963604 52.5857 0.583118 53.2163 0.333236C53.8468 0.0833538 54.5236 -0.0302043 55.2017 0.000103589H74.8382C75.5078 -0.0372299 76.1777 0.0664704 76.8043 0.304422C77.4308 0.542374 77.9997 0.909217 78.4739 1.38096C78.9481 1.8527 79.3169 2.41871 79.5561 3.04198C79.7953 3.66524 79.8995 4.33172 79.862 4.99781C79.862 7.5165 79.862 10.0352 79.862 12.534C79.81 12.8728 79.8936 13.2184 80.0949 13.4965C80.2962 13.7746 80.5991 13.9631 80.9385 14.0215C83.9935 14.9764 86.9348 16.2599 89.7102 17.8491C89.8494 17.9517 90.0078 18.0255 90.1762 18.0662C90.3445 18.1069 90.5194 18.1135 90.6904 18.0858C90.8614 18.0581 91.0251 17.9965 91.1717 17.9047C91.3184 17.813 91.4451 17.6929 91.5443 17.5516C93.2587 15.7667 95.013 14.0215 96.7674 12.2961C97.2259 11.7606 97.7958 11.3306 98.4377 11.0357C99.0797 10.7408 99.7783 10.5881 100.485 10.5881C101.192 10.5881 101.891 10.7408 102.533 11.0357C103.175 11.3306 103.745 11.7606 104.203 12.2961C108.775 16.8442 113.327 21.399 117.859 25.9604C118.406 26.4069 118.846 26.9684 119.149 27.6046C119.451 28.2407 119.608 28.9356 119.608 29.6393C119.608 30.343 119.451 31.0379 119.149 31.674C118.846 32.3102 118.406 32.8717 117.859 33.3182C115.866 35.3014 113.872 37.2846 111.879 39.2678C111.722 39.3731 111.589 39.5084 111.486 39.6658C111.383 39.8232 111.313 39.9995 111.279 40.1843C111.246 40.369 111.25 40.5586 111.291 40.7418C111.332 40.925 111.41 41.0982 111.52 41.2511C112.749 43.796 113.731 46.4524 114.45 49.1839C114.472 49.3539 114.528 49.5178 114.614 49.666C114.701 49.8143 114.816 49.9439 114.954 50.0473C115.091 50.1507 115.248 50.2258 115.414 50.2683C115.581 50.3107 115.755 50.3197 115.925 50.2945C118.956 50.2945 121.906 50.2945 125.036 50.2945C125.695 50.2459 126.358 50.3373 126.979 50.5627C127.6 50.788 128.166 51.1422 128.639 51.6016C129.112 52.0611 129.482 52.6154 129.723 53.2277C129.965 53.84 130.073 54.4965 130.04 55.1534C130.04 61.7972 130.04 68.4608 130.04 75.1046C130.07 75.7607 129.959 76.4157 129.717 77.0266C129.474 77.6375 129.105 78.1904 128.632 78.6492C128.16 79.108 127.595 79.4622 126.975 79.6887C126.356 79.9152 125.695 80.0089 125.036 79.9635C121.567 79.9635 118.098 79.9635 114.65 79.9635C114.262 79.9043 113.867 79.9945 113.545 80.2157C113.222 80.4369 112.997 80.7724 112.915 81.1534C112.121 83.2781 111.126 85.3233 109.945 87.2617C109.723 87.5651 109.63 87.9432 109.685 88.3143C109.741 88.6855 109.942 89.0198 110.244 89.2449C112.756 91.6645 115.228 94.1633 117.68 96.6423C118.256 97.0933 118.722 97.6686 119.042 98.3247C119.363 98.9809 119.529 99.7008 119.529 100.43C119.529 101.16 119.363 101.88 119.042 102.536C118.722 103.192 118.256 103.767 117.68 104.218C113.228 108.687 108.775 113.136 104.323 117.565C103.862 118.147 103.275 118.617 102.605 118.941C101.935 119.264 101.2 119.432 100.455 119.432C99.7109 119.432 98.976 119.264 98.3062 118.941C97.6363 118.617 97.0488 118.147 96.588 117.565C93.9565 114.928 91.2851 112.31 88.6137 109.632C88.4953 109.453 88.3419 109.299 88.1626 109.18C87.9834 109.06 87.7818 108.978 87.57 108.937C87.3581 108.896 87.1402 108.898 86.9292 108.943C86.7181 108.987 86.5181 109.073 86.3411 109.196C84.637 110.077 82.8467 110.781 80.9983 111.298C80.8061 111.327 80.6216 111.394 80.4557 111.495C80.2898 111.596 80.146 111.729 80.0326 111.886C79.9193 112.043 79.8387 112.221 79.7957 112.41C79.7527 112.598 79.7481 112.794 79.7823 112.984C79.7823 116.951 79.7823 120.798 79.7823 124.705C79.8493 125.406 79.7605 126.112 79.5223 126.775C79.2841 127.438 78.9023 128.041 78.4038 128.54C77.9054 129.04 77.3027 129.424 76.6382 129.666C75.9738 129.908 75.264 130.002 74.5591 129.941H55.2814C54.5886 129.995 53.8922 129.899 53.2406 129.658C52.5891 129.418 51.998 129.039 51.5084 128.548C51.0189 128.058 50.6428 127.467 50.4061 126.817C50.1694 126.167 50.078 125.473 50.138 124.784C50.138 120.818 50.138 116.851 50.138 112.885C50.1695 112.705 50.1651 112.521 50.1251 112.343C50.085 112.165 50.0101 111.997 49.9045 111.847C49.799 111.698 49.6649 111.571 49.51 111.474C49.3551 111.376 49.1824 111.31 49.0017 111.279C47.0786 110.712 45.2105 109.976 43.4197 109.077C43.266 108.968 43.092 108.891 42.9078 108.85C42.7237 108.809 42.5331 108.805 42.3474 108.838C42.1616 108.871 41.9844 108.941 41.8262 109.043C41.668 109.146 41.532 109.279 41.4262 109.434C38.7681 112.078 36.11 114.756 33.4519 117.466C32.9922 118.063 32.4006 118.546 31.723 118.878C31.0455 119.211 30.3001 119.384 29.5446 119.384C28.789 119.384 28.0436 119.211 27.3661 118.878C26.6885 118.546 26.097 118.063 25.6372 117.466C21.1982 113.024 16.7459 108.575 12.2803 104.119C11.704 103.668 11.2381 103.093 10.9177 102.437C10.5973 101.781 10.4308 101.061 10.4308 100.331C10.4308 99.6017 10.5973 98.8817 10.9177 98.2256C11.2381 97.5694 11.704 96.9942 12.2803 96.5432C14.7922 94.1832 17.2044 91.724 19.6964 89.2449C19.9765 89.0029 20.1562 88.6658 20.2004 88.2992C20.2446 87.9327 20.1502 87.5629 19.9356 87.2617C18.8168 85.33 17.8824 83.2982 17.1446 81.1931C17.0579 80.7895 16.8201 80.4338 16.4796 80.1981C16.139 79.9624 15.7211 79.8644 15.3105 79.9238C11.9414 79.9238 8.57232 79.9238 5.2032 79.9238C4.49726 79.9861 3.78621 79.8923 3.12103 79.649C2.45584 79.4058 1.85298 79.0191 1.35567 78.5168C0.858365 78.0145 0.478923 77.409 0.244546 76.7436C0.0101687 76.0782 -0.0733386 75.3695 1.01179e-05 74.6683V64.891ZM4.24629 64.9902C4.24629 68.0245 4.24629 70.9398 4.24629 74.0733C4.24629 75.2633 4.52539 75.6996 5.80127 75.6797C9.13051 75.6797 12.4398 75.6797 15.7691 75.6797C16.9032 75.5724 18.0397 75.8596 18.9849 76.4925C19.93 77.1253 20.6253 78.0647 20.9523 79.1504C21.8176 81.3794 22.8093 83.5579 23.9227 85.6752C24.5515 86.6499 24.8031 87.8186 24.6307 88.964C24.4584 90.1094 23.8738 91.1536 22.9858 91.9025C20.5137 94.4211 18.0218 96.9398 15.47 99.4189C14.7125 100.153 14.5929 100.609 15.47 101.402C19.8957 105.765 24.2816 110.155 28.6275 114.571C29.3851 115.324 29.8237 115.285 30.6211 114.571C33.3323 111.794 36.0834 109.077 38.8345 106.34C39.5369 105.476 40.5191 104.881 41.6135 104.656C42.7079 104.432 43.8466 104.593 44.8352 105.111C46.7479 105.983 48.7041 106.757 50.6962 107.431C51.8261 107.703 52.8184 108.374 53.4892 109.318C54.1601 110.263 54.4639 111.417 54.3444 112.568C54.3444 116.534 54.3444 120.5 54.3444 124.467C54.3444 125.439 54.6833 125.776 55.6602 125.776H74.3199C75.3366 125.776 75.6955 125.439 75.6955 124.388C75.6955 120.421 75.6955 116.574 75.6955 112.667C75.5623 111.496 75.8666 110.318 76.5504 109.356C77.2342 108.394 78.2497 107.716 79.4035 107.451C81.3089 106.817 83.1789 106.082 85.0054 105.25C86.044 104.629 87.2756 104.409 88.4663 104.632C89.657 104.855 90.7239 105.505 91.4645 106.459C94.1359 109.137 96.8272 111.774 99.4388 114.392C100.216 115.185 100.675 115.205 101.432 114.392C105.752 109.989 110.104 105.633 114.49 101.323C115.347 100.47 115.248 99.9742 114.49 99.2007C111.978 96.7613 109.526 94.2625 107.074 91.7835C106.157 91.0331 105.551 89.9713 105.375 88.803C105.198 87.6347 105.462 86.4427 106.117 85.457C107.238 83.3678 108.237 81.2157 109.108 79.0115C109.429 77.9022 110.132 76.9407 111.094 76.2953C112.057 75.6499 113.216 75.3618 114.371 75.4814C117.74 75.4814 121.109 75.4814 124.478 75.4814C125.415 75.4814 125.814 75.2434 125.814 74.232C125.814 67.965 125.814 61.6848 125.814 55.3914C125.814 54.3601 125.375 54.1618 124.458 54.1816C121.468 54.1816 118.477 54.1816 115.467 54.1816C114.333 54.2565 113.21 53.9259 112.3 53.2496C111.39 52.5732 110.752 51.5955 110.503 50.4929C109.705 47.6767 108.692 44.9253 107.473 42.2625C106.943 41.2974 106.761 40.1811 106.957 39.0989C107.153 38.0166 107.714 37.0336 108.549 36.3128C110.543 34.3296 112.536 32.2076 114.689 30.1847C115.327 29.5699 115.407 29.1336 114.689 28.4791C110.184 24.0235 105.699 19.5348 101.233 15.0131C100.635 14.3983 100.216 14.4379 99.6381 15.0131C97.824 16.9963 95.97 18.7415 94.096 20.5661C93.3708 21.4004 92.3705 21.9505 91.2745 22.1176C90.1785 22.2848 89.0586 22.0582 88.1153 21.4784C85.1602 20.0284 82.0937 18.8148 78.945 17.8491C77.9489 17.5405 77.0892 16.9018 76.5088 16.0394C75.9285 15.177 75.6625 14.1429 75.7553 13.1092C75.7553 10.5905 75.7553 8.0718 75.7553 5.57295C75.7553 4.54167 75.4164 4.18469 74.3996 4.18469C68.1797 4.18469 61.9598 4.18469 55.7399 4.18469C54.7631 4.18469 54.4042 4.52184 54.4242 5.49362C54.4242 8.01231 54.4242 10.5112 54.4242 13.0299C54.5156 14.1064 54.2216 15.1804 53.5942 16.0623C52.9668 16.9441 52.0463 17.577 50.9953 17.8491C47.8924 18.9197 44.8849 20.2464 42.0043 21.8155C41.0233 22.4414 39.8451 22.6863 38.6943 22.5034C37.5435 22.3205 36.5006 21.7227 35.7645 20.8239C33.9703 19.0588 32.1761 17.2938 30.4217 15.489C29.8037 14.8346 29.3851 14.7949 28.7272 15.489C24.3015 19.9711 19.8492 24.4201 15.3704 28.8361C14.6527 29.5501 14.7324 29.9864 15.3704 30.6607C17.3639 32.6439 19.3575 34.6271 21.351 36.6103C22.2052 37.3177 22.7814 38.302 22.9783 39.3901C23.1752 40.4783 22.9802 41.6007 22.4276 42.56C21.261 45.131 20.2817 47.7822 19.497 50.4929C19.2955 51.694 18.6407 52.7734 17.6663 53.5106C16.6919 54.2477 15.4714 54.5871 14.254 54.4593C11.3633 54.4593 8.47264 54.4593 5.56204 54.4593C4.42571 54.4593 4.10674 54.8361 4.12668 55.907C4.28616 58.862 4.24629 61.9162 4.24629 64.9902Z" fill="#0086CA"/>
<path d="M106.018 58.5644C104.133 48.4829 98.5648 39.452 90.3851 33.2123C82.2054 26.9725 71.9935 23.9657 61.7177 24.7712C51.4418 25.5766 41.8294 30.1375 34.7329 37.5746C27.6365 45.0118 23.5585 54.7989 23.2848 65.0495C23.2848 67.6475 23.843 68.3218 26.4147 68.3218C36.3825 68.3218 46.3503 68.3218 56.3181 68.3218C56.6963 68.2809 57.0778 68.3607 57.4075 68.5496C57.7372 68.7386 57.998 69.0269 58.1521 69.3729C58.8259 70.6112 59.8235 71.6454 61.0394 72.3661C62.2553 73.0868 63.6444 73.4673 65.0598 73.4673C66.4752 73.4673 67.8643 73.0868 69.0803 72.3661C70.2962 71.6454 71.2938 70.6112 71.9675 69.3729C72.0957 69.0609 72.3228 68.799 72.6142 68.6272C72.9057 68.4554 73.2456 68.383 73.5823 68.421C78.626 68.421 83.6697 68.421 88.7333 68.421H104.024C106.018 68.421 106.815 67.6277 106.755 65.585C106.673 63.2306 106.426 60.8848 106.018 58.5644ZM98.442 64.1174H87.4973C83.0118 64.1174 78.5263 64.1174 74.0408 64.1174C73.1636 64.1174 72.7051 63.9389 72.4659 63.0068C72.2757 62.2344 71.8994 61.5197 71.3694 60.9244C71.0481 60.6415 70.8499 60.2456 70.8164 59.8201C70.7829 59.3946 70.9169 58.9728 71.19 58.6437C74.4595 52.8329 77.6492 47.0022 80.8787 41.1914C81.4568 40.1204 81.7359 39.0892 80.7591 38.1174C80.5003 37.8807 80.1872 37.7106 79.8471 37.622C79.507 37.5335 79.1503 37.5291 78.8081 37.6093C78.4659 37.6895 78.1487 37.8519 77.8841 38.0822C77.6195 38.3125 77.4156 38.6037 77.2903 38.9305C75.516 42.0838 73.7816 45.2768 72.0273 48.4499C70.4723 51.2661 68.9174 54.0625 67.3823 56.8786C67.2748 57.1749 67.0664 57.4244 66.7933 57.5837C66.5202 57.7431 66.1996 57.8024 65.8871 57.7512C64.0197 57.5095 62.1281 57.9573 60.5703 59.0099C59.0125 60.0625 57.8968 61.6469 57.4345 63.4629C57.3688 63.7028 57.2166 63.9102 57.007 64.0455C56.7974 64.1809 56.5451 64.2347 56.2981 64.1967C47.0879 64.1967 37.8776 64.1967 28.6674 64.1967C27.5311 64.1967 27.5909 63.6414 27.6706 62.8878C28.3115 54.405 31.9898 46.4322 38.0371 40.4179C48.6628 29.8474 61.5213 26.3172 75.9148 30.6406C90.3083 34.9641 99.0002 45.1975 102.01 59.9328C102.828 64.0975 102.728 64.1174 98.442 64.1174Z" fill="#0086CA"/>
<path d="M98.442 64.1175H87.4973C83.0118 64.1175 78.5263 64.1175 74.0408 64.1175C73.1636 64.1175 72.7051 63.939 72.4659 63.0069C72.2757 62.2345 71.8994 61.5198 71.3694 60.9245C71.0481 60.6417 70.8498 60.2457 70.8164 59.8202C70.7829 59.3947 70.9169 58.9729 71.19 58.6438C74.4594 52.833 77.6491 47.0023 80.8787 41.1915C81.4568 40.1205 81.7359 39.0893 80.7591 38.1175C80.5003 37.8808 80.1872 37.7107 79.8471 37.6222C79.507 37.5336 79.1502 37.5292 78.8081 37.6094C78.4659 37.6897 78.1486 37.852 77.8841 38.0823C77.6195 38.3126 77.4156 38.6039 77.2903 38.9306C75.516 42.0839 73.7816 45.2769 72.0273 48.4501C70.4723 51.2662 68.9173 54.0626 67.3823 56.8787C67.2747 57.175 67.0663 57.4245 66.7932 57.5839C66.5201 57.7432 66.1996 57.8025 65.8871 57.7514C64.0197 57.5096 62.128 57.9574 60.5703 59.01C59.0125 60.0627 57.8968 61.647 57.4344 63.463C57.3688 63.7029 57.2166 63.9103 57.007 64.0456C56.7974 64.181 56.5451 64.2348 56.2981 64.1968C47.0879 64.1968 37.8776 64.1968 28.6674 64.1968C27.531 64.1968 27.5909 63.6415 27.6706 62.8879C28.3115 54.4051 31.9897 46.4324 38.0371 40.418C48.6628 29.8475 61.5212 26.3173 75.9147 30.6408C90.3082 34.9642 99.0001 45.1976 102.01 59.9329C102.828 64.0977 102.728 64.1175 98.442 64.1175Z" fill="#E0F5FF"/>
</g>
<defs>
<clipPath id="clip0_353_1317">
<rect width="130" height="130" fill="white"/>
</clipPath>
</defs>
</svg>
