<svg width="15" height="12" viewBox="0 0 15 12" fill="none" xmlns="http://www.w3.org/2000/svg">
<path d="M14.2901 1.92857C13.8913 2.5119 13.4091 3.00893 12.8436 3.41964C12.8496 3.50298 12.8526 3.62798 12.8526 3.79464C12.8526 4.56845 12.7395 5.34226 12.5133 6.11607C12.2871 6.88393 11.9419 7.62202 11.4776 8.33036C11.0192 9.03869 10.4716 9.66667 9.83471 10.2143C9.1978 10.756 8.42995 11.1905 7.53114 11.5179C6.63233 11.8393 5.67102 12 4.64721 12C3.03411 12 1.55792 11.5685 0.218637 10.7054C0.42697 10.7292 0.659113 10.7411 0.915066 10.7411C2.25435 10.7411 3.4478 10.3304 4.49542 9.50893C3.87042 9.49702 3.3109 9.30655 2.81685 8.9375C2.3228 8.5625 1.98352 8.08631 1.79899 7.50893C1.99542 7.53869 2.17697 7.55357 2.34364 7.55357C2.59959 7.55357 2.85257 7.52083 3.10257 7.45536C2.4359 7.31845 1.88233 6.9881 1.44185 6.46429C1.00733 5.93452 0.790066 5.32143 0.790066 4.625V4.58929C1.19483 4.81548 1.62935 4.9375 2.09364 4.95536C1.70078 4.69345 1.38828 4.35119 1.15614 3.92857C0.923994 3.50595 0.807923 3.04762 0.807923 2.55357C0.807923 2.02976 0.938875 1.54464 1.20078 1.09821C1.92102 1.98512 2.79602 2.69643 3.82578 3.23214C4.86149 3.7619 5.96864 4.05655 7.14721 4.11607C7.09959 3.88988 7.07578 3.66964 7.07578 3.45536C7.07578 2.65774 7.35554 1.97917 7.91507 1.41964C8.48054 0.854166 9.16209 0.571428 9.95971 0.571428C10.793 0.571428 11.4954 0.875 12.0669 1.48214C12.7157 1.35714 13.3258 1.125 13.8972 0.785714C13.677 1.47024 13.2544 2 12.6294 2.375C13.1829 2.31548 13.7365 2.16667 14.2901 1.92857Z" fill="white"/>
</svg>
